<svg width="16" height="16" viewBox="0 0 16 16" fill="none" xmlns="http://www.w3.org/2000/svg">
<path d="M15.102 14.1188L10.4645 9.48129C11.1841 8.55093 11.5734 7.41343 11.5734 6.21701C11.5734 4.78486 11.0145 3.44201 10.0038 2.42951C8.99306 1.41701 7.64663 0.859863 6.21627 0.859863C4.78592 0.859863 3.43949 1.41879 2.42877 2.42951C1.41627 3.44022 0.859131 4.78486 0.859131 6.21701C0.859131 7.64736 1.41806 8.99379 2.42877 10.0045C3.43949 11.017 4.78413 11.5741 6.21627 11.5741C7.4127 11.5741 8.54842 11.1849 9.47877 10.467L14.1163 15.1027C14.1299 15.1163 14.146 15.1271 14.1638 15.1345C14.1816 15.1418 14.2006 15.1456 14.2198 15.1456C14.2391 15.1456 14.2581 15.1418 14.2759 15.1345C14.2937 15.1271 14.3098 15.1163 14.3234 15.1027L15.102 14.3259C15.1156 14.3123 15.1264 14.2962 15.1338 14.2784C15.1411 14.2606 15.1449 14.2416 15.1449 14.2224C15.1449 14.2031 15.1411 14.1841 15.1338 14.1663C15.1264 14.1485 15.1156 14.1324 15.102 14.1188ZM9.04485 9.04558C8.2877 9.80094 7.28413 10.217 6.21627 10.217C5.14842 10.217 4.14485 9.80094 3.3877 9.04558C2.63235 8.28844 2.21627 7.28486 2.21627 6.21701C2.21627 5.14915 2.63235 4.14379 3.3877 3.38843C4.14485 2.63308 5.14842 2.21701 6.21627 2.21701C7.28413 2.21701 8.28949 2.63129 9.04485 3.38843C9.8002 4.14558 10.2163 5.14915 10.2163 6.21701C10.2163 7.28486 9.8002 8.29022 9.04485 9.04558Z" fill="white"/>
</svg>
